<svg width="22" height="22" viewBox="0 0 22 22" fill="none" xmlns="http://www.w3.org/2000/svg">
<path d="M21.9811 19.8906L17.5849 16.3306L7.6397 17.3759C7.09271 17.4334 6.60399 17.2878 6.17353 16.9392C5.74306 16.5906 5.49909 16.1429 5.4416 15.5959L5.33707 14.6014L16.2768 13.4515C16.8238 13.3941 17.2716 13.1501 17.6202 12.7196C17.9687 12.2892 18.1143 11.8004 18.0568 11.2534L17.3251 4.29179L18.3196 4.18726C18.8666 4.12977 19.3553 4.27532 19.7858 4.6239C20.2163 4.97248 20.4602 5.42026 20.5177 5.96725L21.9811 19.8906ZM3.05273 12.0009L4.09848 10.7095L13.8697 9.68251L13.138 2.72086L2.19822 3.87067L3.05273 12.0009ZM1.56804 17.0085L0.209174 4.07972C0.151683 3.53273 0.297228 3.04401 0.645809 2.61355C0.99439 2.18309 1.44217 1.93911 1.98916 1.88162L12.9289 0.731813C13.4759 0.674323 13.9646 0.819868 14.3951 1.16845C14.8255 1.51703 15.0695 1.96481 15.127 2.5118L15.8587 9.47345C15.9162 10.0204 15.7706 10.5092 15.4221 10.9396C15.0735 11.3701 14.6257 11.6141 14.0787 11.6716L5.12801 12.6123L1.56804 17.0085ZM2.92991 10.8323L2.19822 3.87067L2.92991 10.8323Z" fill="#575B7F"/>
</svg>
